<svg width="396" height="248" viewBox="0 0 396 248" fill="none" xmlns="http://www.w3.org/2000/svg">
<g clip-path="url(#clip0_1_5)">
<g clip-path="url(#clip1_1_5)">
<g clip-path="url(#clip2_1_5)">
<g clip-path="url(#clip3_1_5)">
<g clip-path="url(#clip4_1_5)">
<g clip-path="url(#clip5_1_5)">
<g clip-path="url(#clip6_1_5)">
<g clip-path="url(#clip7_1_5)">
<path d="M75.7953 136.547V111.453H86.2939C88.757 111.453 90.6543 112.111 91.9858 113.428C93.3125 114.745 93.9758 116.477 93.9758 118.623C93.9758 120.135 93.6051 121.452 92.8638 122.573C92.1175 123.695 91.086 124.524 89.7691 125.061L94.5977 136.547H89.513L85.3428 126.085H80.4776V136.547H75.7953ZM80.4776 121.951H85.6355C86.7329 121.951 87.5572 121.664 88.1083 121.088C88.6546 120.518 88.9277 119.696 88.9277 118.623C88.9277 117.672 88.6716 116.933 88.1595 116.406C87.6474 115.884 86.867 115.623 85.8184 115.623H80.4776V121.951ZM106.084 136.986C103.353 136.986 101.236 136.272 99.7336 134.842C98.2362 133.418 97.4876 131.365 97.4876 128.682V111.453H102.17V128.536C102.17 129.975 102.511 131.072 103.194 131.828C103.877 132.584 104.84 132.962 106.084 132.962C107.328 132.962 108.296 132.584 108.988 131.828C109.686 131.072 110.035 129.975 110.035 128.536V111.453H114.717V128.682C114.717 131.365 113.961 133.418 112.449 134.842C110.937 136.272 108.815 136.986 106.084 136.986ZM126.679 136.986C125.094 136.986 123.643 136.686 122.326 136.086C121.009 135.491 119.96 134.608 119.18 133.438C118.399 132.267 118.009 130.853 118.009 129.194L118.046 128.39H122.911L122.874 128.975C122.874 130.194 123.228 131.162 123.935 131.879C124.643 132.601 125.63 132.962 126.898 132.962C128.191 132.962 129.147 132.674 129.766 132.099C130.391 131.528 130.703 130.828 130.703 129.999C130.703 129.17 130.483 128.492 130.044 127.965C129.605 127.443 129.061 127.036 128.413 126.744C127.769 126.451 126.862 126.109 125.691 125.719C124.155 125.232 122.911 124.744 121.96 124.256C121.009 123.768 120.197 123.025 119.524 122.025C118.855 121.025 118.521 119.696 118.521 118.037C118.521 116.525 118.899 115.238 119.655 114.174C120.411 113.116 121.423 112.323 122.692 111.797C123.96 111.275 125.362 111.014 126.898 111.014C129.288 111.014 131.244 111.628 132.766 112.858C134.292 114.092 135.056 115.94 135.056 118.403V118.842H130.264V118.513C130.264 117.44 129.959 116.591 129.349 115.967C128.74 115.347 127.91 115.038 126.862 115.038C125.764 115.038 124.903 115.286 124.279 115.784C123.66 116.286 123.35 116.928 123.35 117.708C123.35 118.391 123.557 118.952 123.972 119.391C124.386 119.83 124.903 120.183 125.523 120.452C126.147 120.72 127.008 121.025 128.106 121.366C129.691 121.878 130.971 122.371 131.946 122.844C132.922 123.322 133.763 124.061 134.471 125.061C135.178 126.061 135.531 127.378 135.531 129.012C135.531 131.767 134.744 133.787 133.168 135.069C131.598 136.347 129.435 136.986 126.679 136.986ZM143.755 136.547V115.623H137.536V111.453H154.656V115.623H148.437V136.547H143.755ZM166.069 136.986C163.337 136.986 161.223 136.272 159.726 134.842C158.224 133.418 157.472 131.365 157.472 128.682V111.453H162.155V128.536C162.155 129.975 162.496 131.072 163.179 131.828C163.862 132.584 164.825 132.962 166.069 132.962C167.313 132.962 168.283 132.584 168.981 131.828C169.673 131.072 170.02 129.975 170.02 128.536V111.453H174.702V128.682C174.702 131.365 173.946 133.418 172.434 134.842C170.922 136.272 168.8 136.986 166.069 136.986ZM179.091 136.547V111.453H187.249C190.419 111.453 192.887 112.489 194.653 114.562C196.423 116.635 197.309 119.659 197.309 123.634C197.309 127.853 196.431 131.06 194.675 133.255C192.919 135.45 190.444 136.547 187.249 136.547H179.091ZM183.774 132.377H186.81C188.59 132.377 189.98 131.711 190.98 130.38C191.98 129.053 192.48 127.109 192.48 124.549V122.72C192.48 120.403 191.98 118.64 190.98 117.43C189.98 116.225 188.59 115.623 186.81 115.623H183.774V132.377ZM200.747 136.547V111.453H216.733V115.623H205.43V121.622H215.123V125.792H205.43V132.377H216.952V136.547H200.747ZM220.749 136.547V111.453H224.883L232.638 125.28C232.882 125.671 233.26 126.451 233.772 127.621L233.882 127.512L233.845 125.427V111.453H238.015V136.547H233.845L226.09 122.72C225.895 122.403 225.517 121.622 224.956 120.379L224.81 120.488L224.883 122.573V136.547H220.749ZM247.051 136.547V115.623H240.832V111.453H257.952V115.623H251.733V136.547H247.051ZM260.732 136.547V111.453H268.889C272.06 111.453 274.528 112.489 276.293 114.562C278.064 116.635 278.949 119.659 278.949 123.634C278.949 127.853 278.071 131.06 276.315 133.255C274.559 135.45 272.084 136.547 268.889 136.547H260.732ZM265.414 132.377H268.451C270.231 132.377 271.621 131.711 272.621 130.38C273.621 129.053 274.12 127.109 274.12 124.549V122.72C274.12 120.403 273.621 118.64 272.621 117.43C271.621 116.225 270.231 115.623 268.451 115.623H265.414V132.377ZM282.388 136.547V111.453H298.373V115.623H287.07V121.622H296.764V125.792H287.07V132.377H298.593V136.547H282.388ZM307.84 136.547L300.195 111.453H305.024L310.291 129.414H310.438L315.632 111.453H320.205L312.559 136.547H307.84Z" fill="#F8FAFC"/>
</g>
</g>
</g>
</g>
</g>
</g>
</g>
<path d="M223.219 105.014V40.154H390.911V207.846H223.219V142.986H225.561V205.504H388.569V42.496H225.561V105.014H223.219Z" fill="#F8FAFC"/>
</g>
<defs>
<clipPath id="clip0_1_5">
<rect width="395.52" height="247.2" fill="white" transform="translate(0.23999 0.399994)"/>
</clipPath>
<clipPath id="clip1_1_5">
<rect width="244.431" height="25.9722" fill="white" transform="translate(75.7843 111.014)"/>
</clipPath>
<clipPath id="clip2_1_5">
<rect width="244.431" height="25.9722" fill="white" transform="translate(75.7843 111.014)"/>
</clipPath>
<clipPath id="clip3_1_5">
<rect width="244.431" height="25.9722" fill="white" transform="translate(75.7843 111.014)"/>
</clipPath>
<clipPath id="clip4_1_5">
<rect width="244.431" height="25.9722" fill="white" transform="translate(75.7843 111.014)"/>
</clipPath>
<clipPath id="clip5_1_5">
<rect width="244.431" height="25.9722" fill="white" transform="translate(75.7843 111.014)"/>
</clipPath>
<clipPath id="clip6_1_5">
<rect width="244.431" height="25.9722" fill="white" transform="translate(75.7843 111.014)"/>
</clipPath>
<clipPath id="clip7_1_5">
<rect width="244.431" height="25.9722" fill="white" transform="translate(75.7843 111.014)"/>
</clipPath>
</defs>
</svg>
